<?xml version="1.0" standalone="no"?>
<!DOCTYPE svg PUBLIC "-//W3C//DTD SVG 20010904//EN"
 "http://www.w3.org/TR/2001/REC-SVG-20010904/DTD/svg10.dtd">
<svg version="1.0" xmlns="http://www.w3.org/2000/svg"
 width="512.000000pt" height="512.000000pt" viewBox="0 0 512.000000 512.000000"
 preserveAspectRatio="xMidYMid meet">

<g transform="translate(0.000000,512.000000) scale(0.100000,-0.100000)"
fill="#000000" stroke="none">
<path d="M482 4808 c-6 -6 -12 -19 -12 -28 0 -34 -54 -122 -101 -164 -31 -28
-71 -52 -106 -63 -98 -33 -98 -71 0 -109 103 -40 169 -109 202 -212 27 -83 73
-82 100 1 34 103 98 170 201 210 100 39 99 77 -2 111 -77 25 -162 108 -188
181 -10 28 -21 57 -25 65 -10 19 -52 25 -69 8z m90 -209 c21 -27 56 -59 78
-71 22 -13 40 -25 40 -28 0 -3 -12 -13 -28 -22 -38 -23 -111 -97 -129 -133
-15 -28 -17 -29 -27 -11 -22 38 -92 110 -133 136 l-42 27 49 32 c48 31 94 81
120 131 12 23 14 23 24 6 6 -10 28 -40 48 -67z"/>
<path d="M3826 4667 c-29 -21 -12 -52 40 -72 49 -19 74 -10 74 26 0 32 -86 67
-114 46z"/>
<path d="M3996 4554 c-22 -21 -21 -25 19 -75 63 -79 77 -134 83 -311 4 -144 6
-158 24 -164 40 -12 48 10 48 146 0 153 -11 215 -50 295 -29 60 -80 125 -99
125 -5 0 -17 -7 -25 -16z"/>
<path d="M1438 4500 c-57 -10 -105 -38 -147 -86 -59 -66 -61 -81 -61 -370 l0
-263 -393 -3 -393 -3 -42 -28 c-80 -53 -82 -61 -82 -436 0 -209 4 -340 11
-358 5 -15 22 -41 37 -56 53 -56 73 -61 255 -65 l167 -4 0 -812 -1 -811 -259
-265 c-143 -146 -269 -282 -280 -302 -11 -20 -23 -61 -26 -91 -11 -90 42 -182
131 -230 l40 -22 2180 0 2180 0 41 22 c55 30 101 78 120 130 21 55 14 144 -15
199 -11 21 -126 156 -256 299 l-235 259 0 352 0 352 188 4 c215 3 244 12 297
87 l30 43 3 321 c4 352 1 375 -51 434 -51 58 -74 63 -282 63 l-185 0 0 233 c0
262 -7 306 -63 379 -20 26 -55 54 -91 72 -51 27 -69 30 -172 34 l-115 5 3 361
c3 351 2 362 -18 406 -26 55 -85 113 -139 137 -38 17 -106 18 -1185 19 -630 1
-1166 -2 -1192 -6z m2462 -1105 l0 -535 -70 0 c-118 0 -188 -52 -210 -158 -8
-33 -10 -156 -8 -349 3 -330 3 -331 72 -391 40 -35 91 -52 157 -52 l46 0 6
-112 c4 -62 7 -215 7 -340 l0 -228 -1300 0 -1300 0 0 699 0 699 30 30 c28 28
30 36 30 101 l0 71 41 0 c71 0 129 21 172 61 l40 39 1001 0 c956 0 1003 1
1036 19 19 10 45 36 58 57 22 39 22 42 20 369 -3 328 -3 330 -26 363 -49 68
24 64 -1105 62 -820 -1 -1026 -3 -1042 -14 -15 -9 -51 -12 -137 -8 l-118 5 0
73 0 74 1300 0 1300 0 0 -535z m-269 309 l24 -26 0 -315 0 -315 -28 -24 -28
-24 -985 0 -984 0 0 318 c0 296 -1 320 -20 356 -10 22 -17 43 -14 47 3 5 456
9 1008 9 l1003 0 24 -26z m-2146 -8 c69 -29 70 -32 70 -394 l0 -324 -37 -34
c-37 -33 -40 -34 -121 -34 -51 0 -88 -5 -95 -12 -7 -7 -12 -44 -12 -94 0 -125
-3 -125 -167 0 l-139 106 -252 0 c-279 0 -298 4 -327 60 -14 26 -15 76 -13
349 3 303 4 320 23 341 43 49 49 49 558 50 390 0 484 -3 512 -14z m2730 -215
c48 -22 79 -54 100 -103 12 -30 15 -83 15 -273 l0 -235 -175 0 -175 0 0 315 0
315 98 0 c73 0 107 -5 137 -19z m-3116 -752 l131 -100 0 -398 c0 -219 -3 -533
-7 -699 l-6 -302 -174 0 -173 0 0 800 0 800 49 0 c46 0 55 -5 180 -101z m3717
17 l34 -34 0 -326 0 -326 -29 -32 -29 -33 -267 -3 -266 -3 -136 -103 c-75 -57
-143 -102 -150 -99 -9 4 -13 30 -13 92 0 54 -5 92 -12 99 -7 7 -42 12 -88 12
-86 0 -115 12 -147 59 -23 33 -23 38 -23 333 0 320 4 348 51 382 21 14 78 16
532 16 l509 0 34 -34z m-486 -1176 l0 -340 -175 0 -175 0 0 235 0 235 33 14
c17 7 86 55 152 105 69 52 129 91 142 91 l23 0 0 -340z m238 -650 c241 -266
267 -298 276 -327 l7 -23 -2276 0 -2276 0 17 33 c9 17 131 148 272 290 l257
257 1760 -2 1759 -3 204 -225z m276 -429 c8 -12 -33 -70 -67 -95 l-28 -21
-2152 -3 c-2378 -3 -2206 -7 -2262 59 -53 63 -168 59 1478 62 826 1 1845 3
2264 5 429 1 764 -2 767 -7z"/>
<path d="M1586 2725 c-52 -18 -94 -61 -107 -107 -6 -23 -9 -169 -7 -381 l3
-344 28 -36 c52 -69 37 -67 530 -67 444 0 444 0 477 23 18 12 43 35 54 50 20
27 21 42 24 375 2 227 -1 360 -8 384 -13 44 -66 93 -117 107 -61 17 -828 14
-877 -4z m886 -76 c41 -22 48 -65 48 -298 0 -121 -3 -227 -6 -236 -5 -12 -18
1 -51 50 -49 74 -93 101 -145 90 -25 -6 -103 -68 -229 -182 l-26 -24 -33 78
c-71 170 -90 193 -163 193 -41 0 -53 -9 -209 -153 l-108 -99 0 271 0 272 25
24 24 25 426 0 c286 0 433 -4 447 -11z m-580 -411 c16 -13 27 -37 119 -261
l48 -118 -230 3 -231 3 -24 28 c-47 55 -44 59 229 305 62 57 65 58 89 40z
m491 -90 c45 -60 127 -198 127 -212 0 -8 -11 -28 -24 -43 l-24 -28 -159 -3
-159 -4 -22 54 c-12 29 -22 56 -22 60 0 15 223 208 240 208 11 0 30 -15 43
-32z"/>
<path d="M2042 2550 c-59 -36 -78 -118 -42 -177 72 -119 250 -75 250 61 0 110
-114 173 -208 116z m118 -70 c25 -25 26 -62 0 -85 -27 -24 -70 -22 -92 5 -23
29 -23 41 3 74 25 31 61 34 89 6z"/>
<path d="M2846 2724 c-9 -8 -16 -19 -16 -24 0 -5 7 -16 16 -24 13 -14 60 -16
354 -16 294 0 341 2 354 16 9 8 16 19 16 24 0 5 -7 16 -16 24 -13 14 -60 16
-354 16 -294 0 -341 -2 -354 -16z"/>
<path d="M2839 2404 c-9 -11 -10 -20 -2 -32 9 -15 46 -17 350 -20 287 -2 342
0 352 12 9 11 10 20 1 35 -10 21 -17 21 -349 21 -297 0 -340 -2 -352 -16z"/>
<path d="M3023 2103 c-172 -3 -182 -4 -188 -24 -15 -48 -6 -49 356 -49 338 0
338 0 350 22 10 18 8 24 -11 40 -24 19 3 19 -507 11z"/>
<path d="M2840 1775 c-16 -19 -4 -52 23 -59 12 -3 162 -6 333 -6 287 0 314 1
334 18 19 16 21 22 11 40 -12 22 -12 22 -350 22 -284 0 -341 -2 -351 -15z"/>
<path d="M1479 1454 c-9 -11 -10 -20 -2 -32 9 -16 97 -17 1120 -20 1197 -2
1145 -4 1128 48 -6 20 -6 20 -1119 20 -1004 0 -1115 -2 -1127 -16z"/>
<path d="M2657 3575 c-85 -30 -127 -100 -127 -210 0 -116 50 -190 143 -216 55
-15 137 1 182 35 102 78 106 294 8 364 -57 40 -139 51 -206 27z m114 -45 c110
-31 142 -209 53 -298 -33 -33 -37 -34 -99 -30 -97 6 -135 52 -135 163 0 108
37 154 140 174 3 0 21 -4 41 -9z"/>
<path d="M3117 3576 c-82 -30 -127 -104 -127 -205 0 -35 5 -82 12 -104 34
-112 175 -159 279 -92 l36 24 12 -25 c6 -13 17 -24 26 -24 13 0 15 19 15 115
l0 115 -90 0 c-89 0 -90 0 -90 -25 0 -24 2 -25 66 -25 63 0 65 -1 59 -22 -23
-81 -55 -108 -129 -108 -94 0 -136 50 -136 162 0 110 50 172 137 172 56 0 100
-25 109 -60 5 -19 13 -24 36 -24 27 0 30 2 24 26 -4 14 -14 36 -22 49 -33 51
-147 77 -217 51z"/>
<path d="M1832 3368 l3 -213 79 -3 c96 -4 173 11 203 40 53 50 50 141 -6 174
l-28 16 24 24 c33 33 32 102 -2 136 -31 32 -62 38 -181 38 l-94 0 2 -212z
m223 137 c14 -13 25 -31 25 -40 0 -9 -11 -27 -25 -40 -21 -22 -33 -25 -95 -25
l-70 0 0 65 0 65 70 0 c62 0 74 -3 95 -25z m16 -173 c15 -13 22 -30 22 -52 0
-53 -30 -70 -124 -70 l-79 0 0 70 0 70 79 0 c62 0 84 -4 102 -18z"/>
<path d="M2222 3368 l3 -213 133 -3 132 -3 0 31 0 30 -105 0 -105 0 0 185 0
185 -30 0 -30 0 2 -212z"/>
<path d="M533 3524 c-3 -9 -2 -24 4 -33 15 -24 161 -23 176 1 8 12 7 21 -2 32
-20 23 -169 23 -178 0z"/>
<path d="M774 3526 c-3 -8 -4 -23 -2 -33 3 -17 22 -18 317 -18 282 0 315 2
324 17 8 12 7 21 -2 32 -12 14 -53 16 -323 16 -259 0 -310 -2 -314 -14z"/>
<path d="M533 3324 c-3 -9 -2 -24 4 -33 9 -14 45 -16 290 -19 301 -2 313 0
298 48 -6 20 -13 20 -296 20 -259 0 -290 -2 -296 -16z"/>
<path d="M1233 3324 c-13 -35 11 -49 89 -52 82 -3 105 9 93 48 -6 18 -14 20
-91 20 -69 0 -86 -3 -91 -16z"/>
<path d="M548 3139 c-21 -12 -23 -40 -6 -57 9 -9 80 -12 259 -12 212 0 250 2
263 16 21 21 20 30 -6 48 -19 13 -61 16 -258 16 -141 0 -242 -5 -252 -11z"/>
<path d="M4111 2639 c-100 -40 -149 -155 -107 -252 7 -18 67 -85 133 -149 115
-113 122 -118 162 -118 40 0 48 5 147 102 145 141 175 197 153 283 -31 117
-160 178 -264 125 -39 -20 -39 -20 -80 0 -44 21 -104 25 -144 9z m343 -73 c67
-28 93 -94 62 -154 -8 -15 -59 -71 -114 -126 -85 -83 -102 -97 -118 -88 -11 6
-63 55 -116 110 -73 75 -98 108 -103 135 -20 104 106 169 188 97 42 -36 47
-37 77 -5 13 14 38 29 54 34 17 5 32 10 34 10 1 1 17 -5 36 -13z"/>
<path d="M2300 879 c-35 -29 -68 -67 -76 -86 -13 -31 -13 -38 3 -71 30 -62 36
-62 361 -60 l294 3 29 33 c49 54 41 84 -40 164 l-70 68 -220 0 -220 0 -61 -51z"/>
<path d="M4560 4173 c-100 -53 -136 -167 -83 -269 11 -22 39 -52 62 -69 37
-26 51 -30 111 -30 60 0 74 4 112 30 153 107 93 343 -93 361 -46 5 -62 2 -109
-23z m160 -72 c36 -25 63 -84 55 -121 -22 -99 -147 -138 -213 -67 -102 109 37
274 158 188z"/>
<path d="M632 2128 c-14 -14 -16 -96 -3 -116 4 -8 19 -12 32 -10 21 3 24 9 27
56 4 70 -23 103 -56 70z"/>
<path d="M632 1918 c-9 -9 -12 -75 -12 -254 0 -258 3 -274 50 -259 20 6 20 11
18 263 -3 249 -4 257 -23 260 -11 1 -26 -3 -33 -10z"/>
</g>
</svg>
